# xmcd
#
# Track frame offsets: 
#        150
#        15449
#        36316
#        49707
#        71271
#        87229
#        123117
#        139120
#        153761
#        184676
#        204654
#        236188
#        251193
#
# Disc length: 3755 seconds
#
# Revision: 0
# Processed by: cddbd v1.5PL3 Copyright (c) Steve Scherf et al.
# Submitted via: ExactAudioCopy v0.95a4
#
DISCID=aa0ea90d
DTITLE=Forrest McDonald - Finger Lickin' Blues
DYEAR=2001
DGENRE=Blues
TTITLE0=I Feel So Good
TTITLE1=Boogie Me "til I Drop
TTITLE2=Standing By Myself
TTITLE3=Sharpenened Up My Axes
TTITLE4=Who's Been Talking
TTITLE5=Blues In The Basement
TTITLE6=Travelling South
TTITLE7=Not Enough Money
TTITLE8=Five Long Years
TTITLE9=Momma's In The Kitchen
TTITLE10=Ode T Bille Joe
TTITLE11=T-Bone Shuffle
TTITLE12=Driving Wheel
EXTD=
EXTT0=
EXTT1=
EXTT2=
EXTT3=
EXTT4=
EXTT5=
EXTT6=
EXTT7=
EXTT8=
EXTT9=
EXTT10=
EXTT11=
EXTT12=
PLAYORDER=
